/* XPM */
static char * manager_xpm[] = {
"32 32 277 2",
"  	c None",
". 	c #000000",
"+ 	c #0E0D09",
"@ 	c #429790",
"# 	c #051B20",
"$ 	c #A77D00",
"% 	c #C39300",
"& 	c #54133B",
"* 	c #3A251B",
"= 	c #4AAAB4",
"- 	c #38903A",
"; 	c #5D9404",
"> 	c #6C9409",
", 	c #123205",
"' 	c #85574B",
") 	c #3F2924",
"! 	c #FF3ECE",
"~ 	c #8F3A60",
"{ 	c #2F9800",
"] 	c #615E2F",
"^ 	c #805E49",
"/ 	c #31640E",
"( 	c #0B1E02",
"_ 	c #BF7C6D",
": 	c #774E44",
"< 	c #060303",
"[ 	c #297B07",
"} 	c #1E5505",
"| 	c #70402F",
"1 	c #905C53",
"2 	c #A96D61",
"3 	c #130A05",
"4 	c #986357",
"5 	c #6A453C",
"6 	c #3C2722",
"7 	c #090604",
"8 	c #301D13",
"9 	c #3E5F14",
"0 	c #6A3F28",
"a 	c #7D5231",
"b 	c #A46B5E",
"c 	c #A36B59",
"d 	c #0D0A01",
"e 	c #442C27",
"f 	c #925F53",
"g 	c #BB7A6A",
"h 	c #110B0A",
"i 	c #120C07",
"j 	c #412C19",
"k 	c #4B331C",
"l 	c #51381F",
"m 	c #75502C",
"n 	c #674727",
"o 	c #794F2E",
"p 	c #5C5321",
"q 	c #3F7813",
"r 	c #9A6055",
"s 	c #3C2A15",
"t 	c #79503C",
"u 	c #D38A79",
"v 	c #1B120F",
"w 	c #D38A78",
"x 	c #020101",
"y 	c #010100",
"z 	c #1A120A",
"A 	c #7F5730",
"B 	c #6D4928",
"C 	c #524D2F",
"D 	c #906262",
"E 	c #BF7B6D",
"F 	c #C57F71",
"G 	c #D08677",
"H 	c #261915",
"I 	c #CB8473",
"J 	c #080603",
"K 	c #825931",
"L 	c #48311B",
"M 	c #110C07",
"N 	c #100A05",
"O 	c #D5978A",
"P 	c #BA7768",
"Q 	c #765F40",
"R 	c #633F38",
"S 	c #293912",
"T 	c #B26E66",
"U 	c #C68171",
"V 	c #AC7062",
"W 	c #543A20",
"X 	c #4A321C",
"Y 	c #614225",
"Z 	c #4E351D",
"` 	c #352414",
" .	c #C88271",
"..	c #A2635E",
"+.	c #34890B",
"@.	c #70DC39",
"#.	c #5A9B2D",
"$.	c #5C5D35",
"%.	c #4A2F2A",
"&.	c #7E5630",
"*.	c #1B130A",
"=.	c #76512D",
"-.	c #382615",
";.	c #473119",
">.	c #704941",
",.	c #BE7C6C",
"'.	c #4C292D",
").	c #41B411",
"!.	c #9EFF68",
"~.	c #0C2701",
"{.	c #040301",
"].	c #5A3E22",
"^.	c #24190D",
"/.	c #5E4024",
"(.	c #7C552F",
"_.	c #A66C5F",
":.	c #9F685B",
"<.	c #824B4C",
"[.	c #2B2815",
"}.	c #090603",
"|.	c #6F4C2A",
"1.	c #372615",
"2.	c #291C0E",
"3.	c #583933",
"4.	c #BD7B6C",
"5.	c #BE7B6C",
"6.	c #7E5148",
"7.	c #573B21",
"8.	c #4A331C",
"9.	c #110C06",
"0.	c #150E08",
"a.	c #B27466",
"b.	c #B97869",
"c.	c #AF7264",
"d.	c #946155",
"e.	c #47311B",
"f.	c #0D0905",
"g.	c #3F2C23",
"h.	c #A4685E",
"i.	c #C67B71",
"j.	c #BE786D",
"k.	c #89544F",
"l.	c #261A0E",
"m.	c #0D2103",
"n.	c #000100",
"o.	c #1B5D02",
"p.	c #3E9512",
"q.	c #478A1C",
"r.	c #26670D",
"s.	c #112407",
"t.	c #274F13",
"u.	c #081104",
"v.	c #050302",
"w.	c #2C6F0B",
"x.	c #1B4407",
"y.	c #35830E",
"z.	c #1F4F08",
"A.	c #000200",
"B.	c #010400",
"C.	c #050B02",
"D.	c #489820",
"E.	c #4B9726",
"F.	c #66C635",
"G.	c #192E0E",
"H.	c #46AC12",
"I.	c #35840E",
"J.	c #57D617",
"K.	c #27620A",
"L.	c #275A0D",
"M.	c #1F450C",
"N.	c #010200",
"O.	c #69DA31",
"P.	c #1E3D0F",
"Q.	c #80F644",
"R.	c #5BA934",
"S.	c #59DC18",
"T.	c #265F0A",
"U.	c #245A0A",
"V.	c #0A1A02",
"W.	c #65F91A",
"X.	c #1D4808",
"Y.	c #1F4B0A",
"Z.	c #5DD223",
"`.	c #76F237",
" +	c #71D93E",
".+	c #71D141",
"++	c #3D9710",
"@+	c #59DD17",
"#+	c #122E05",
"$+	c #4BBB14",
"%+	c #29650A",
"&+	c #47AF13",
"*+	c #357B13",
"=+	c #50B21E",
"-+	c #264F11",
";+	c #50A426",
">+	c #78E542",
",+	c #386821",
"'+	c #0A1802",
")+	c #4EC315",
"!+	c #0B1D03",
"~+	c #56D517",
"{+	c #245809",
"]+	c #265D0A",
"^+	c #63F61A",
"/+	c #0E2004",
"(+	c #6AF625",
"_+	c #1A3D0A",
":+	c #67D92F",
"<+	c #010301",
"[+	c #0A1405",
"}+	c #65BE37",
"|+	c #42A512",
"1+	c #000A00",
"2+	c #3C9410",
"3+	c #255E0A",
"4+	c #1A4207",
"5+	c #60EF19",
"6+	c #081602",
"7+	c #62EA1E",
"8+	c #58CA20",
"9+	c #19350A",
"0+	c #2A5A12",
"a+	c #1C350E",
"b+	c #225A08",
"c+	c #615E32",
"d+	c #132C05",
"e+	c #327C0D",
"f+	c #061002",
"g+	c #5EE818",
"h+	c #51C915",
"i+	c #66F221",
"j+	c #387A17",
"k+	c #174704",
"l+	c #836049",
"m+	c #4F292E",
"n+	c #246108",
"o+	c #071302",
"p+	c #5CE418",
"q+	c #081402",
"r+	c #51CA15",
"s+	c #63F21B",
"t+	c #183609",
"u+	c #082100",
"v+	c #754843",
"w+	c #A5685F",
"x+	c #052300",
"y+	c #1B4107",
"z+	c #55D216",
"A+	c #5DE518",
"B+	c #4AB813",
"C+	c #52362E",
"D+	c #CD8575",
"E+	c #37890E",
"F+	c #193E07",
"G+	c #317A0C",
"H+	c #53D015",
"I+	c #040B01",
"J+	c #060403",
"K+	c #D38978",
"L+	c #265E0A",
"M+	c #30790C",
"N+	c #180A0E",
"O+	c #784F44",
"P+	c #35221E",
"Q+	c #714541",
"R+	c #34211D",
"S+	c #784E44",
"T+	c #3A2621",
"U+	c #794F45",
"V+	c #9D6659",
"W+	c #080505",
"X+	c #211513",
"Y+	c #D48A79",
"Z+	c #18100E",
"`+	c #A96E60",
" @	c #412A25",
"                                                                ",
"                        . + @ # $ % .       .                   ",
"                        & * = - ; > ,   . ' )                   ",
"                      . ! ~ { ] ^ / ( . _ : <                   ",
"                      . [ } | 1 2 3 . 4 5 6 .                   ",
"          . 7 .   . . 8 9 0 a b c d e f g h                     ",
"            i j k l m n o p q r s t u v w x                     ",
"              . y z l A B C D E F G H e I .                     ",
"                J K L M N O P Q R S T U V .                     ",
"              . W X Y Z `  ...+.@.#.$.%..                       ",
"              . &.*.=.-.;.>.,.'.).!.~.                          ",
"              {.].^./.. (.. _.:.<.[..                           ",
"              }.l . |.. 1.2.3.4.5.6.                            ",
"              . 7.. 8.. 9.0.a.b.c.d..                           ",
"              . e.. . f.. g.h.i.j.k..                           ",
"                l..   . m.n.o.p.q.r.s.t.u..                     ",
"                . v.  . w.x.y.z.A.B.C.D.E.F.G..                 ",
"                      . H.I.. J.K.L.M.N.O.P.Q.R..               ",
"                      . S.T.U.V.W.X.Y.Z.u.`..  +.+.             ",
"                      . ++T.@+#+$+%+&+*+=+-+;+. >+,+            ",
"                        '+)+!+~+{+]+^+/+(+_+:+<+[+}+.           ",
"                        . |+1+2+3+4+5+6+7+8+9+0+  a+.           ",
"                          b+c+d+e+f+g+#+h+i+. j+  .             ",
"                          k+l+m+n+o+p+q+r+s+. t+                ",
"                        . u+v+w+x+y+z+. A+B+. .                 ",
"                          . C+D+. E+F+G+H+I+.                   ",
"                            J+K+. L+F+M+N+.                     ",
"                            . O+P+. . Q+_ .                     ",
"                              R+S+    T+U+V+W+                  ",
"                              X+Y+Z+    . . .                   ",
"                              . `+ @                            ",
"                                . .                             "};
